<?xml version="1.0" standalone="no"?>
 <!DOCTYPE svg PUBLIC "-//W3C//DTD SVG 1.1//EN" 
 "http://www.w3.org/Graphics/SVG/1.1/DTD/svg11.dtd"> 
<svg xmlns="http://www.w3.org/2000/svg" version="1.1" 
    width="29.7002cm" height="21.0007cm" viewBox="0 0 116930 82680 ">
<title>SVG Picture created as lm324_soldering_station-F.Fab.svg date 2020/03/11 15:59:33 </title>
  <desc>Picture generated by PCBNEW </desc>
<g style="fill:#000000; fill-opacity:1;stroke:#000000; stroke-opacity:1;
stroke-linecap:round; stroke-linejoin:round; "
 transform="translate(0 0) scale(1 1)">
</g>
<g style="fill:#000000; fill-opacity:0.0; 
stroke:#000000; stroke-width:-0.000393701; stroke-opacity:1; 
stroke-linecap:round; stroke-linejoin:round;">
</g>
<g style="fill:#000000; fill-opacity:0.0; 
stroke:#000000; stroke-width:39.3701; stroke-opacity:1; 
stroke-linecap:round; stroke-linejoin:round;">
<path d="M48271 33629
L48271 32370
" />
<path d="M48271 32370
L44728 32370
" />
<path d="M44728 32370
L44728 33629
" />
<path d="M44728 33629
L48271 33629
" />
<path d="M49000 33000
L48271 33000
" />
<path d="M44000 33000
L44728 33000
" />
<path d="M50500 36000
L50500 35271
" />
<path d="M50500 31000
L50500 31728
" />
<path d="M51129 35271
L51129 31728
" />
<path d="M49870 35271
L51129 35271
" />
<path d="M49870 31728
L49870 35271
" />
<path d="M51129 31728
L49870 31728
" />
<path d="M42473 32347
L42670 32347
" />
<path d="M42571 32446
L42571 32249
" />
<circle cx="43000" cy="31606.3" r="984.252" /> 
<circle cx="62606.3" cy="38500" r="984.252" /> 
<path d="M63446 38928
L63249 38928
" />
<path d="M63347 39026
L63347 38829
" />
<circle cx="59492.1" cy="53500" r="1240.16" /> 
<path d="M58431 52959
L58679 52959
" />
<path d="M58555 52835
L58555 53083
" />
<path d="M55606 47614
L55606 49385
" />
<path d="M55606 49385
L58362 49385
" />
<path d="M58362 49385
L58362 47614
" />
<path d="M58362 47614
L55606 47614
" />
<path d="M56468 55523
L57531 55523
" />
<path d="M57531 55523
L57531 53476
" />
<path d="M57531 53476
L56468 53476
" />
<path d="M56468 53476
L56468 55523
" />
<path d="M57000 56000
L57000 55523
" />
<path d="M57000 53000
L57000 53476
" />
<path d="M56468 55216
L57531 55216
" />
<path d="M56468 55177
L57531 55177
" />
<path d="M56468 55255
L57531 55255
" />
<path d="M54468 55255
L55531 55255
" />
<path d="M54468 55177
L55531 55177
" />
<path d="M54468 55216
L55531 55216
" />
<path d="M55000 53000
L55000 53476
" />
<path d="M55000 56000
L55000 55523
" />
<path d="M54468 53476
L54468 55523
" />
<path d="M55531 53476
L54468 53476
" />
<path d="M55531 55523
L55531 53476
" />
<path d="M54468 55523
L55531 55523
" />
<path d="M42078.6 49484.3 A1141.73 1141.73 0.0 1 0 40921.4 49484.3 " />
<circle cx="41500" cy="48500" r="984.252" /> 
<path d="M40921 49484
L42078 49484
" />
<path d="M56476 50468
L56476 51531
" />
<path d="M56476 51531
L58523 51531
" />
<path d="M58523 51531
L58523 50468
" />
<path d="M58523 50468
L56476 50468
" />
<path d="M56000 51000
L56476 51000
" />
<path d="M59000 51000
L58523 51000
" />
<path d="M56783 50468
L56783 51531
" />
<path d="M56822 50468
L56822 51531
" />
<path d="M56744 50468
L56744 51531
" />
<circle cx="43940.9" cy="56000" r="728.346" /> 
<path d="M45358 57968
L42838 57968
" />
<path d="M42838 57968
L42838 54031
" />
<path d="M42838 54031
L45358 54031
" />
<path d="M45358 54031
L45358 57968
" />
<path d="M49000 57968
L45358 57968
" />
<path d="M45358 57968
L45358 54031
" />
<path d="M45358 54031
L49000 54031
" />
<path d="M49000 54031
L49000 57968
" />
<path d="M49000 57000
L50500 57000
" />
<path d="M49000 56000
L50500 56000
" />
<path d="M49000 55000
L50500 55000
" />
<path d="M46271 35629
L46271 34370
" />
<path d="M46271 34370
L42728 34370
" />
<path d="M42728 34370
L42728 35629
" />
<path d="M42728 35629
L46271 35629
" />
<path d="M47000 35000
L46271 35000
" />
<path d="M42000 35000
L42728 35000
" />
<path d="M47000 41000
L46271 41000
" />
<path d="M42000 41000
L42728 41000
" />
<path d="M46271 40370
L42728 40370
" />
<path d="M46271 41629
L46271 40370
" />
<path d="M42728 41629
L46271 41629
" />
<path d="M42728 40370
L42728 41629
" />
<path d="M51870 38271
L53129 38271
" />
<path d="M53129 38271
L53129 34728
" />
<path d="M53129 34728
L51870 34728
" />
<path d="M51870 34728
L51870 38271
" />
<path d="M52500 39000
L52500 38271
" />
<path d="M52500 34000
L52500 34728
" />
<path d="M47000 39000
L46271 39000
" />
<path d="M42000 39000
L42728 39000
" />
<path d="M46271 38370
L42728 38370
" />
<path d="M46271 39629
L46271 38370
" />
<path d="M42728 39629
L46271 39629
" />
<path d="M42728 38370
L42728 39629
" />
<path d="M50500 43000
L50500 42271
" />
<path d="M50500 38000
L50500 38728
" />
<path d="M51129 42271
L51129 38728
" />
<path d="M49870 42271
L51129 42271
" />
<path d="M49870 38728
L49870 42271
" />
<path d="M51129 38728
L49870 38728
" />
<path d="M62129 31728
L60870 31728
" />
<path d="M60870 31728
L60870 35271
" />
<path d="M60870 35271
L62129 35271
" />
<path d="M62129 35271
L62129 31728
" />
<path d="M61500 31000
L61500 31728
" />
<path d="M61500 36000
L61500 35271
" />
<path d="M46271 37629
L46271 36370
" />
<path d="M46271 36370
L42728 36370
" />
<path d="M42728 36370
L42728 37629
" />
<path d="M42728 37629
L46271 37629
" />
<path d="M47000 37000
L46271 37000
" />
<path d="M42000 37000
L42728 37000
" />
<path d="M51870 44271
L53129 44271
" />
<path d="M53129 44271
L53129 40728
" />
<path d="M53129 40728
L51870 40728
" />
<path d="M51870 40728
L51870 44271
" />
<path d="M52500 45000
L52500 44271
" />
<path d="M52500 40000
L52500 40728
" />
<path d="M64129 31728
L62870 31728
" />
<path d="M62870 31728
L62870 35271
" />
<path d="M62870 35271
L64129 35271
" />
<path d="M64129 35271
L64129 31728
" />
<path d="M63500 31000
L63500 31728
" />
<path d="M63500 36000
L63500 35271
" />
<path d="M55228 41370
L55228 42629
" />
<path d="M55228 42629
L58771 42629
" />
<path d="M58771 42629
L58771 41370
" />
<path d="M58771 41370
L55228 41370
" />
<path d="M54500 42000
L55228 42000
" />
<path d="M59500 42000
L58771 42000
" />
<path d="M59500 34000
L59500 34728
" />
<path d="M59500 39000
L59500 38271
" />
<path d="M58870 34728
L58870 38271
" />
<path d="M60129 34728
L58870 34728
" />
<path d="M60129 38271
L60129 34728
" />
<path d="M58870 38271
L60129 38271
" />
<path d="M58771 46629
L58771 45370
" />
<path d="M58771 45370
L55228 45370
" />
<path d="M55228 45370
L55228 46629
" />
<path d="M55228 46629
L58771 46629
" />
<path d="M59500 46000
L58771 46000
" />
<path d="M54500 46000
L55228 46000
" />
<path d="M53000 50000
L52271 50000
" />
<path d="M48000 50000
L48728 50000
" />
<path d="M52271 49370
L48728 49370
" />
<path d="M52271 50629
L52271 49370
" />
<path d="M48728 50629
L52271 50629
" />
<path d="M48728 49370
L48728 50629
" />
<path d="M59500 44000
L58771 44000
" />
<path d="M54500 44000
L55228 44000
" />
<path d="M58771 43370
L55228 43370
" />
<path d="M58771 44629
L58771 43370
" />
<path d="M55228 44629
L58771 44629
" />
<path d="M55228 43370
L55228 44629
" />
<path d="M46500 52500
L46500 51771
" />
<path d="M46500 47500
L46500 48228
" />
<path d="M47129 51771
L47129 48228
" />
<path d="M45870 51771
L47129 51771
" />
<path d="M45870 48228
L45870 51771
" />
<path d="M47129 48228
L45870 48228
" />
<path d="M53000 52500
L52271 52500
" />
<path d="M48000 52500
L48728 52500
" />
<path d="M52271 51870
L48728 51870
" />
<path d="M52271 53129
L52271 51870
" />
<path d="M48728 53129
L52271 53129
" />
<path d="M48728 51870
L48728 53129
" />
<circle cx="44531.5" cy="43984.3" r="413.386" /> 
<path d="M46500 45913
L46500 42055
" />
<path d="M46500 42055
L42562 42055
" />
<path d="M42562 42055
L42562 45913
" />
<path d="M42562 45913
L46500 45913
" />
<path d="M53212 30031
L58724 30031
" />
<path d="M58724 30031
L58724 32000
" />
<path d="M58724 32000
L53212 32000
" />
<path d="M53212 32000
L53212 30031
" />
<path d="M54787 32000
L57149 32000
" />
<path d="M57149 32000
L57149 30031
" />
<path d="M57149 30031
L54787 30031
" />
<path d="M54787 30031
L54787 32000
" />
<circle cx="35559.1" cy="38968.5" r="3326.77" /> 
<circle cx="35559.1" cy="38968.5" r="787.402" /> 
<path d="M35559 42295
L39811 42295
" />
<path d="M39811 42295
L39811 35641
" />
<path d="M39811 35641
L35559 35641
" />
<path d="M55143 33500
L57250 33500
" />
<path d="M57250 33500
L57250 40500
" />
<path d="M57250 40500
L54750 40500
" />
<path d="M54750 40500
L54750 33893
" />
<path d="M54750 33893
L55143 33500
" />
<path d="M51000 45643
L51000 47750
" />
<path d="M51000 47750
L48000 47750
" />
<path d="M48000 47750
L48000 45250
" />
<path d="M48000 45250
L50606 45250
" />
<path d="M50606 45250
L51000 45643
" />
<path d="M45129 49244
L45129 47767
" />
<path d="M45127 47751.5 A976.378 976.378 0.0 0 0 43523.6 48500 " />
<path d="M43523.6 48500 A976.378 976.378 0.0 0 0 45130.9 49245.2 " />
</g>
<g style="fill:#000000; fill-opacity:0.0; 
stroke:#000000; stroke-width:59.0551; stroke-opacity:1; 
stroke-linecap:round; stroke-linejoin:round;">
<path d="M46453 32107
L46228 32107
" />
<path d="M46340 32107
L46340 31713
L46303 31769
L46265 31807
L46228 31826
" />
<path d="M46621 32107
L46621 31713
" />
<path d="M46659 31957
L46771 32107
" />
<path d="M46771 31844
L46621 31994
" />
<path d="M46434 33178
L46303 32990
" />
<path d="M46209 33178
L46209 32784
L46359 32784
L46396 32803
L46415 32821
L46434 32859
L46434 32915
L46415 32953
L46396 32971
L46359 32990
L46209 32990
" />
<path d="M46584 32821
L46603 32803
L46640 32784
L46734 32784
L46771 32803
L46790 32821
L46809 32859
L46809 32896
L46790 32953
L46565 33178
L46809 33178
" />
<path d="M49607 33546
L49607 33771
" />
<path d="M49607 33659
L49213 33659
L49269 33696
L49307 33734
L49326 33771
" />
<path d="M49607 33378
L49213 33378
" />
<path d="M49457 33340
L49607 33228
" />
<path d="M49344 33228
L49494 33378
" />
<path d="M50678 33565
L50490 33696
" />
<path d="M50678 33790
L50284 33790
L50284 33640
L50303 33603
L50321 33584
L50359 33565
L50415 33565
L50453 33584
L50471 33603
L50490 33640
L50490 33790
" />
<path d="M50284 33434
L50284 33190
L50434 33321
L50434 33265
L50453 33228
L50471 33209
L50509 33190
L50603 33190
L50640 33209
L50659 33228
L50678 33265
L50678 33378
L50659 33415
L50640 33434
" />
<path d="M44654 32028
L44654 32253
" />
<path d="M44654 32140
L44260 32140
L44317 32178
L44354 32215
L44373 32253
" />
<path d="M44260 31784
L44260 31746
L44279 31709
L44298 31690
L44335 31671
L44410 31653
L44504 31653
L44579 31671
L44616 31690
L44635 31709
L44654 31746
L44654 31784
L44635 31821
L44616 31840
L44579 31859
L44504 31878
L44410 31878
L44335 31859
L44298 31840
L44279 31821
L44260 31784
" />
<path d="M44392 31484
L44654 31484
" />
<path d="M44429 31484
L44410 31465
L44392 31428
L44392 31371
L44410 31334
L44448 31315
L44654 31315
" />
<path d="M44448 30997
L44448 31128
" />
<path d="M44654 31128
L44260 31128
L44260 30940
" />
<path d="M43140 31671
L43159 31690
L43178 31746
L43178 31784
L43159 31840
L43121 31878
L43084 31896
L43009 31915
L42953 31915
L42878 31896
L42840 31878
L42803 31840
L42784 31784
L42784 31746
L42803 31690
L42821 31671
" />
<path d="M43178 31296
L43178 31521
" />
<path d="M43178 31409
L42784 31409
L42840 31446
L42878 31484
L42896 31521
" />
<path d="M62371 37201
L62146 37201
" />
<path d="M62259 37201
L62259 36808
L62221 36864
L62184 36901
L62146 36920
" />
<path d="M62709 36939
L62709 37201
" />
<path d="M62540 36939
L62540 37145
L62559 37182
L62596 37201
L62653 37201
L62690 37182
L62709 37164
" />
<path d="M63028 36995
L62896 36995
" />
<path d="M62896 37201
L62896 36808
L63084 36808
" />
<path d="M62540 38640
L62521 38659
L62465 38678
L62428 38678
L62371 38659
L62334 38621
L62315 38584
L62296 38509
L62296 38453
L62315 38378
L62334 38340
L62371 38303
L62428 38284
L62465 38284
L62521 38303
L62540 38321
" />
<path d="M62690 38321
L62709 38303
L62746 38284
L62840 38284
L62878 38303
L62896 38321
L62915 38359
L62915 38396
L62896 38453
L62671 38678
L62915 38678
" />
<path d="M58882 55410
L58657 55410
" />
<path d="M58770 55410
L58770 55016
L58732 55072
L58695 55110
L58657 55129
" />
<path d="M59126 55016
L59164 55016
L59201 55035
L59220 55054
L59239 55091
L59257 55166
L59257 55260
L59239 55335
L59220 55372
L59201 55391
L59164 55410
L59126 55410
L59089 55391
L59070 55372
L59051 55335
L59032 55260
L59032 55166
L59051 55091
L59070 55054
L59089 55035
L59126 55016
" />
<path d="M59501 55016
L59538 55016
L59576 55035
L59595 55054
L59613 55091
L59632 55166
L59632 55260
L59613 55335
L59595 55372
L59576 55391
L59538 55410
L59501 55410
L59464 55391
L59445 55372
L59426 55335
L59407 55260
L59407 55166
L59426 55091
L59445 55054
L59464 55035
L59501 55016
" />
<path d="M59970 55147
L59970 55410
" />
<path d="M59801 55147
L59801 55354
L59820 55391
L59857 55410
L59913 55410
L59951 55391
L59970 55372
" />
<path d="M60288 55204
L60157 55204
" />
<path d="M60157 55410
L60157 55016
L60345 55016
" />
<path d="M59426 53640
L59407 53659
L59351 53678
L59314 53678
L59257 53659
L59220 53621
L59201 53584
L59182 53509
L59182 53453
L59201 53378
L59220 53340
L59257 53303
L59314 53284
L59351 53284
L59407 53303
L59426 53321
" />
<path d="M59557 53284
L59801 53284
L59670 53434
L59726 53434
L59763 53453
L59782 53471
L59801 53509
L59801 53603
L59782 53640
L59763 53659
L59726 53678
L59613 53678
L59576 53659
L59557 53640
" />
<path d="M56374 50056
L56149 50056
" />
<path d="M56262 50056
L56262 49662
L56224 49718
L56187 49756
L56149 49774
" />
<path d="M56618 49662
L56656 49662
L56693 49681
L56712 49699
L56731 49737
L56749 49812
L56749 49906
L56731 49981
L56712 50018
L56693 50037
L56656 50056
L56618 50056
L56581 50037
L56562 50018
L56543 49981
L56524 49906
L56524 49812
L56543 49737
L56562 49699
L56581 49681
L56618 49662
" />
<path d="M56993 49662
L57031 49662
L57068 49681
L57087 49699
L57106 49737
L57124 49812
L57124 49906
L57106 49981
L57087 50018
L57068 50037
L57031 50056
L56993 50056
L56956 50037
L56937 50018
L56918 49981
L56899 49906
L56899 49812
L56918 49737
L56937 49699
L56956 49681
L56993 49662
" />
<path d="M57293 49793
L57293 50056
" />
<path d="M57293 49831
L57312 49812
L57349 49793
L57406 49793
L57443 49812
L57462 49849
L57462 50056
" />
<path d="M57781 49849
L57649 49849
" />
<path d="M57649 50056
L57649 49662
L57837 49662
" />
<path d="M56918 48640
L56899 48659
L56843 48678
L56806 48678
L56749 48659
L56712 48621
L56693 48584
L56674 48509
L56674 48453
L56693 48378
L56712 48340
L56749 48303
L56806 48284
L56843 48284
L56899 48303
L56918 48321
" />
<path d="M57256 48415
L57256 48678
" />
<path d="M57162 48265
L57068 48546
L57312 48546
" />
<path d="M58150 55343
L58150 55568
" />
<path d="M58150 55456
L57756 55456
L57813 55493
L57850 55531
L57869 55568
" />
<path d="M58150 55174
L57756 55174
L58150 54949
L57756 54949
" />
<path d="M57888 54593
L58150 54593
" />
<path d="M57738 54687
L58019 54781
L58019 54537
" />
<path d="M57756 54312
L57756 54275
L57775 54237
L57794 54218
L57831 54200
L57906 54181
L58000 54181
L58075 54200
L58113 54218
L58131 54237
L58150 54275
L58150 54312
L58131 54350
L58113 54368
L58075 54387
L58000 54406
L57906 54406
L57831 54387
L57794 54368
L57775 54350
L57756 54312
" />
<path d="M57756 53937
L57756 53900
L57775 53862
L57794 53843
L57831 53825
L57906 53806
L58000 53806
L58075 53825
L58113 53843
L58131 53862
L58150 53900
L58150 53937
L58131 53975
L58113 53993
L58075 54012
L58000 54031
L57906 54031
L57831 54012
L57794 53993
L57775 53975
L57756 53937
" />
<path d="M57756 53675
L57756 53412
L58150 53581
" />
<path d="M57178 54637
L56784 54637
L56784 54543
L56803 54487
L56840 54449
L56878 54430
L56953 54412
L57009 54412
L57084 54430
L57121 54449
L57159 54487
L57178 54543
L57178 54637
" />
<path d="M57178 54037
L57178 54262
" />
<path d="M57178 54149
L56784 54149
L56840 54187
L56878 54224
L56896 54262
" />
<path d="M56351 56103
L55957 56103
" />
<path d="M56351 55878
L56126 56046
" />
<path d="M55957 55878
L56182 56103
" />
<path d="M56150 55343
L56150 55568
" />
<path d="M56150 55456
L55756 55456
L55813 55493
L55850 55531
L55869 55568
" />
<path d="M56150 55174
L55756 55174
L56150 54949
L55756 54949
" />
<path d="M55888 54593
L56150 54593
" />
<path d="M55738 54687
L56019 54781
L56019 54537
" />
<path d="M55756 54312
L55756 54275
L55775 54237
L55794 54218
L55831 54200
L55906 54181
L56000 54181
L56075 54200
L56113 54218
L56131 54237
L56150 54275
L56150 54312
L56131 54350
L56113 54368
L56075 54387
L56000 54406
L55906 54406
L55831 54387
L55794 54368
L55775 54350
L55756 54312
" />
<path d="M55756 53937
L55756 53900
L55775 53862
L55794 53843
L55831 53825
L55906 53806
L56000 53806
L56075 53825
L56113 53843
L56131 53862
L56150 53900
L56150 53937
L56131 53975
L56113 53993
L56075 54012
L56000 54031
L55906 54031
L55831 54012
L55794 53993
L55775 53975
L55756 53937
" />
<path d="M55756 53675
L55756 53412
L56150 53581
" />
<path d="M54351 56103
L53957 56103
" />
<path d="M54351 55878
L54126 56046
" />
<path d="M53957 55878
L54182 56103
" />
<path d="M55178 54637
L54784 54637
L54784 54543
L54803 54487
L54840 54449
L54878 54430
L54953 54412
L55009 54412
L55084 54430
L55121 54449
L55159 54487
L55178 54543
L55178 54637
" />
<path d="M54821 54262
L54803 54243
L54784 54205
L54784 54112
L54803 54074
L54821 54055
L54859 54037
L54896 54037
L54953 54055
L55178 54280
L55178 54037
" />
<path d="M43237 50243
L43237 50431
L42843 50431
" />
<path d="M43030 50112
L43030 49981
" />
<path d="M43237 49924
L43237 50112
L42843 50112
L42843 49924
" />
<path d="M43237 49756
L42843 49756
L42843 49662
L42862 49606
L42899 49568
L42937 49549
L43012 49531
L43068 49531
L43143 49549
L43180 49568
L43218 49606
L43237 49662
L43237 49756
" />
<path d="M43274 49456
L43274 49156
" />
<path d="M43237 49062
L42843 49062
L42843 48968
L42862 48912
L42899 48874
L42937 48856
L43012 48837
L43068 48837
L43143 48856
L43180 48874
L43218 48912
L43237 48968
L43237 49062
" />
<path d="M42974 48500
L43237 48500
" />
<path d="M42974 48668
L43180 48668
L43218 48649
L43237 48612
L43237 48556
L43218 48518
L43199 48500
" />
<path d="M43237 48143
L43030 48143
L42993 48162
L42974 48200
L42974 48275
L42993 48312
" />
<path d="M43218 48143
L43237 48181
L43237 48275
L43218 48312
L43180 48331
L43143 48331
L43105 48312
L43087 48275
L43087 48181
L43068 48143
" />
<path d="M43237 47900
L43218 47937
L43180 47956
L42843 47956
" />
<path d="M43274 47843
L43274 47543
" />
<path d="M43124 47468
L43124 47281
" />
<path d="M43237 47506
L42843 47375
L43237 47243
" />
<path d="M43199 46887
L43218 46906
L43237 46962
L43237 47000
L43218 47056
L43180 47093
L43143 47112
L43068 47131
L43012 47131
L42937 47112
L42899 47093
L42862 47056
L42843 47000
L42843 46962
L42862 46906
L42880 46887
" />
<path d="M43124 46737
L43124 46550
" />
<path d="M43237 46775
L42843 46643
L43237 46512
" />
<path d="M56656 52150
L56431 52150
" />
<path d="M56543 52150
L56543 51756
L56506 51813
L56468 51850
L56431 51869
" />
<path d="M56825 52150
L56825 51756
L57050 52150
L57050 51756
" />
<path d="M57406 51888
L57406 52150
" />
<path d="M57312 51738
L57218 52019
L57462 52019
" />
<path d="M57574 51756
L57837 51756
L57668 52150
" />
<path d="M58156 51888
L58156 52150
" />
<path d="M58062 51738
L57968 52019
L58212 52019
" />
<path d="M58343 51794
L58362 51775
L58399 51756
L58493 51756
L58531 51775
L58549 51794
L58568 51831
L58568 51869
L58549 51925
L58324 52150
L58568 52150
" />
<path d="M57362 51178
L57362 50784
L57456 50784
L57512 50803
L57550 50840
L57569 50878
L57587 50953
L57587 51009
L57569 51084
L57550 51121
L57512 51159
L57456 51178
L57362 51178
" />
<path d="M57925 50915
L57925 51178
" />
<path d="M57831 50765
L57737 51046
L57981 51046
" />
<path d="M55896 50351
L55896 49957
" />
<path d="M56121 50351
L55953 50126
" />
<path d="M56121 49957
L55896 50182
" />
<path d="M51259 56665
L51278 56609
L51296 56590
L51334 56571
L51390 56571
L51428 56590
L51446 56609
L51465 56646
L51465 56796
L51071 56796
L51071 56665
L51090 56628
L51109 56609
L51146 56590
L51184 56590
L51221 56609
L51240 56628
L51259 56665
L51259 56796
" />
<path d="M51071 56459
L51071 56234
" />
<path d="M51465 56346
L51071 56346
" />
<path d="M51353 56121
L51353 55934
" />
<path d="M51465 56159
L51071 56028
L51465 55896
" />
<path d="M51071 55690
L51071 55653
L51090 55615
L51109 55596
L51146 55578
L51221 55559
L51315 55559
L51390 55578
L51428 55596
L51446 55615
L51465 55653
L51465 55690
L51446 55728
L51428 55746
L51390 55765
L51315 55784
L51221 55784
L51146 55765
L51109 55746
L51090 55728
L51071 55690
" />
<path d="M51240 55334
L51221 55371
L51203 55390
L51165 55409
L51146 55409
L51109 55390
L51090 55371
L51071 55334
L51071 55259
L51090 55221
L51109 55203
L51146 55184
L51165 55184
L51203 55203
L51221 55221
L51240 55259
L51240 55334
L51259 55371
L51278 55390
L51315 55409
L51390 55409
L51428 55390
L51446 55371
L51465 55334
L51465 55259
L51446 55221
L51428 55203
L51390 55184
L51315 55184
L51278 55203
L51259 55221
L51240 55259
" />
<path d="M42575 56290
L42182 56290
L42182 56196
L42200 56140
L42238 56103
L42275 56084
L42350 56065
L42407 56065
L42482 56084
L42519 56103
L42556 56140
L42575 56196
L42575 56290
" />
<path d="M42182 55709
L42182 55896
L42369 55915
L42350 55896
L42332 55859
L42332 55765
L42350 55728
L42369 55709
L42407 55690
L42500 55690
L42538 55709
L42556 55728
L42575 55765
L42575 55859
L42556 55896
L42538 55915
" />
<path d="M39796 35034
L40021 35034
" />
<path d="M39909 35428
L39909 35034
" />
<path d="M40378 35390
L40359 35409
L40303 35428
L40265 35428
L40209 35409
L40171 35371
L40153 35334
L40134 35259
L40134 35203
L40153 35128
L40171 35090
L40209 35053
L40265 35034
L40303 35034
L40359 35053
L40378 35071
" />
<path d="M40846 35278
L41146 35278
" />
<path d="M40996 35428
L40996 35128
" />
<path d="M40368 33784
L40368 34065
L40350 34121
L40312 34159
L40256 34178
L40218 34178
" />
<path d="M40762 34178
L40537 34178
" />
<path d="M40649 34178
L40649 33784
L40612 33840
L40574 33878
L40537 33896
" />
<path d="M39796 33034
L40021 33034
" />
<path d="M39909 33428
L39909 33034
" />
<path d="M40378 33390
L40359 33409
L40303 33428
L40265 33428
L40209 33409
L40171 33371
L40153 33334
L40134 33259
L40134 33203
L40153 33128
L40171 33090
L40209 33053
L40265 33034
L40303 33034
L40359 33053
L40378 33071
" />
<path d="M40846 33278
L41146 33278
" />
<path d="M40368 31784
L40368 32065
L40350 32121
L40312 32159
L40256 32178
L40218 32178
" />
<path d="M40537 31821
L40556 31803
L40593 31784
L40687 31784
L40724 31803
L40743 31821
L40762 31859
L40762 31896
L40743 31953
L40518 32178
L40762 32178
" />
<path d="M39356 54821
L39375 54803
L39412 54784
L39506 54784
L39543 54803
L39562 54821
L39581 54859
L39581 54896
L39562 54953
L39337 55178
L39581 55178
" />
<path d="M39918 54915
L39918 55178
" />
<path d="M39825 54765
L39731 55046
L39975 55046
" />
<path d="M40068 54784
L40200 55178
L40331 54784
" />
<path d="M40443 55065
L40631 55065
" />
<path d="M40406 55178
L40537 54784
L40668 55178
" />
<path d="M41024 55140
L41006 55159
L40949 55178
L40912 55178
L40856 55159
L40818 55121
L40799 55084
L40781 55009
L40781 54953
L40799 54878
L40818 54840
L40856 54803
L40912 54784
L40949 54784
L41006 54803
L41024 54821
" />
<path d="M41681 55178
L41493 55178
L41493 54784
" />
<path d="M40368 56284
L40368 56565
L40350 56621
L40312 56659
L40256 56678
L40218 56678
" />
<path d="M40518 56284
L40762 56284
L40631 56434
L40687 56434
L40724 56453
L40743 56471
L40762 56509
L40762 56603
L40743 56640
L40724 56659
L40687 56678
L40574 56678
L40537 56659
L40518 56640
" />
<path d="M39309 52321
L39328 52303
L39365 52284
L39459 52284
L39497 52303
L39515 52321
L39534 52359
L39534 52396
L39515 52453
L39290 52678
L39534 52678
" />
<path d="M39871 52415
L39871 52678
" />
<path d="M39778 52265
L39684 52546
L39928 52546
" />
<path d="M40021 52284
L40153 52678
L40284 52284
" />
<path d="M40396 52565
L40584 52565
" />
<path d="M40359 52678
L40490 52284
L40621 52678
" />
<path d="M40978 52640
L40959 52659
L40903 52678
L40865 52678
L40809 52659
L40771 52621
L40753 52584
L40734 52509
L40734 52453
L40753 52378
L40771 52340
L40809 52303
L40865 52284
L40903 52284
L40959 52303
L40978 52321
" />
<path d="M41446 52678
L41446 52284
L41671 52678
L41671 52284
" />
<path d="M40368 53784
L40368 54065
L40350 54121
L40312 54159
L40256 54178
L40218 54178
" />
<path d="M40724 53915
L40724 54178
" />
<path d="M40631 53765
L40537 54046
L40781 54046
" />
<path d="M39487 49821
L39506 49803
L39543 49784
L39637 49784
L39675 49803
L39693 49821
L39712 49859
L39712 49896
L39693 49953
L39468 50178
L39712 50178
" />
<path d="M40050 49915
L40050 50178
" />
<path d="M39956 49765
L39862 50046
L40106 50046
" />
<path d="M40237 50065
L40425 50065
" />
<path d="M40200 50178
L40331 49784
L40462 50178
" />
<path d="M40818 50140
L40799 50159
L40743 50178
L40706 50178
L40649 50159
L40612 50121
L40593 50084
L40574 50009
L40574 49953
L40593 49878
L40612 49840
L40649 49803
L40706 49784
L40743 49784
L40799 49803
L40818 49821
" />
<path d="M41493 49803
L41456 49784
L41399 49784
L41343 49803
L41306 49840
L41287 49878
L41268 49953
L41268 50009
L41287 50084
L41306 50121
L41343 50159
L41399 50178
L41437 50178
L41493 50159
L41512 50140
L41512 50009
L41437 50009
" />
<path d="M40368 51284
L40368 51565
L40350 51621
L40312 51659
L40256 51678
L40218 51678
" />
<path d="M40743 51284
L40556 51284
L40537 51471
L40556 51453
L40593 51434
L40687 51434
L40724 51453
L40743 51471
L40762 51509
L40762 51603
L40743 51640
L40724 51659
L40687 51678
L40593 51678
L40556 51659
L40537 51640
" />
<path d="M51197 59428
L51197 59034
" />
<path d="M51197 59221
L51422 59221
" />
<path d="M51422 59428
L51422 59034
" />
<path d="M51609 59221
L51740 59221
" />
<path d="M51796 59428
L51609 59428
L51609 59034
L51796 59034
" />
<path d="M51946 59315
L52134 59315
" />
<path d="M51909 59428
L52040 59034
L52171 59428
" />
<path d="M52246 59034
L52471 59034
" />
<path d="M52359 59428
L52359 59034
" />
<path d="M52603 59221
L52734 59221
" />
<path d="M52790 59428
L52603 59428
L52603 59034
L52790 59034
" />
<path d="M53184 59428
L53053 59240
" />
<path d="M52959 59428
L52959 59034
L53109 59034
L53146 59053
L53165 59071
L53184 59109
L53184 59165
L53165 59203
L53146 59221
L53109 59240
L52959 59240
" />
<path d="M53634 59315
L53821 59315
" />
<path d="M53596 59428
L53727 59034
L53859 59428
" />
<path d="M52368 57784
L52368 58065
L52350 58121
L52312 58159
L52256 58178
L52218 58178
" />
<path d="M52724 57784
L52649 57784
L52612 57803
L52593 57821
L52556 57878
L52537 57953
L52537 58103
L52556 58140
L52574 58159
L52612 58178
L52687 58178
L52724 58159
L52743 58140
L52762 58103
L52762 58009
L52743 57971
L52724 57953
L52687 57934
L52612 57934
L52574 57953
L52556 57971
L52537 58009
" />
<path d="M51168 55928
L51168 55534
" />
<path d="M51168 55721
L51393 55721
" />
<path d="M51393 55928
L51393 55534
" />
<path d="M51581 55721
L51712 55721
" />
<path d="M51768 55928
L51581 55928
L51581 55534
L51768 55534
" />
<path d="M51918 55815
L52106 55815
" />
<path d="M51881 55928
L52012 55534
L52143 55928
" />
<path d="M52218 55534
L52443 55534
" />
<path d="M52331 55928
L52331 55534
" />
<path d="M52574 55721
L52706 55721
" />
<path d="M52762 55928
L52574 55928
L52574 55534
L52762 55534
" />
<path d="M53156 55928
L53024 55740
" />
<path d="M52931 55928
L52931 55534
L53081 55534
L53118 55553
L53137 55571
L53156 55609
L53156 55665
L53137 55703
L53118 55721
L53081 55740
L52931 55740
" />
<path d="M53756 55721
L53812 55740
L53831 55759
L53849 55796
L53849 55853
L53831 55890
L53812 55909
L53774 55928
L53624 55928
L53624 55534
L53756 55534
L53793 55553
L53812 55571
L53831 55609
L53831 55646
L53812 55684
L53793 55703
L53756 55721
L53624 55721
" />
<path d="M52368 54284
L52368 54565
L52350 54621
L52312 54659
L52256 54678
L52218 54678
" />
<path d="M52518 54284
L52781 54284
L52612 54678
" />
<path d="M44265 34107
L44040 34107
" />
<path d="M44153 34107
L44153 33713
L44115 33769
L44078 33807
L44040 33826
" />
<path d="M44509 33713
L44546 33713
L44584 33732
L44603 33751
L44621 33788
L44640 33863
L44640 33957
L44621 34032
L44603 34069
L44584 34088
L44546 34107
L44509 34107
L44471 34088
L44453 34069
L44434 34032
L44415 33957
L44415 33863
L44434 33788
L44453 33751
L44471 33732
L44509 33713
" />
<path d="M44809 34107
L44809 33713
" />
<path d="M44846 33957
L44959 34107
" />
<path d="M44959 33844
L44809 33994
" />
<path d="M44434 35178
L44303 34990
" />
<path d="M44209 35178
L44209 34784
L44359 34784
L44396 34803
L44415 34821
L44434 34859
L44434 34915
L44415 34953
L44396 34971
L44359 34990
L44209 34990
" />
<path d="M44809 35178
L44584 35178
" />
<path d="M44696 35178
L44696 34784
L44659 34840
L44621 34878
L44584 34896
" />
<path d="M44134 41986
L44134 42248
" />
<path d="M44040 41836
L43946 42117
L44190 42117
" />
<path d="M44340 42211
L44359 42230
L44340 42248
L44321 42230
L44340 42211
L44340 42248
" />
<path d="M44490 41855
L44753 41855
L44584 42248
" />
<path d="M44903 42248
L44903 41855
" />
<path d="M44940 42098
L45053 42248
" />
<path d="M45053 41986
L44903 42136
" />
<path d="M44434 41178
L44303 40990
" />
<path d="M44209 41178
L44209 40784
L44359 40784
L44396 40803
L44415 40821
L44434 40859
L44434 40915
L44415 40953
L44396 40971
L44359 40990
L44209 40990
" />
<path d="M44771 40915
L44771 41178
" />
<path d="M44678 40765
L44584 41046
L44828 41046
" />
<path d="M53748 36734
L53748 36959
" />
<path d="M53748 36846
L53355 36846
L53411 36884
L53449 36921
L53467 36959
" />
<path d="M53355 36490
L53355 36453
L53374 36415
L53392 36396
L53430 36378
L53505 36359
L53598 36359
L53673 36378
L53711 36396
L53730 36415
L53748 36453
L53748 36490
L53730 36528
L53711 36546
L53673 36565
L53598 36584
L53505 36584
L53430 36565
L53392 36546
L53374 36528
L53355 36490
" />
<path d="M53748 36190
L53355 36190
" />
<path d="M53598 36153
L53748 36040
" />
<path d="M53486 36040
L53636 36190
" />
<path d="M52678 36565
L52490 36696
" />
<path d="M52678 36790
L52284 36790
L52284 36640
L52303 36603
L52321 36584
L52359 36565
L52415 36565
L52453 36584
L52471 36603
L52490 36640
L52490 36790
" />
<path d="M52284 36209
L52284 36396
L52471 36415
L52453 36396
L52434 36359
L52434 36265
L52453 36228
L52471 36209
L52509 36190
L52603 36190
L52640 36209
L52659 36228
L52678 36265
L52678 36359
L52659 36396
L52640 36415
" />
<path d="M44265 40248
L44040 40248
" />
<path d="M44153 40248
L44153 39855
L44115 39911
L44078 39949
L44040 39967
" />
<path d="M44509 39855
L44546 39855
L44584 39874
L44603 39892
L44621 39930
L44640 40005
L44640 40098
L44621 40173
L44603 40211
L44584 40230
L44546 40248
L44509 40248
L44471 40230
L44453 40211
L44434 40173
L44415 40098
L44415 40005
L44434 39930
L44453 39892
L44471 39874
L44509 39855
" />
<path d="M44809 40248
L44809 39855
" />
<path d="M44846 40098
L44959 40248
" />
<path d="M44959 39986
L44809 40136
" />
<path d="M44434 39178
L44303 38990
" />
<path d="M44209 39178
L44209 38784
L44359 38784
L44396 38803
L44415 38821
L44434 38859
L44434 38915
L44415 38953
L44396 38971
L44359 38990
L44209 38990
" />
<path d="M44771 38784
L44696 38784
L44659 38803
L44640 38821
L44603 38878
L44584 38953
L44584 39103
L44603 39140
L44621 39159
L44659 39178
L44734 39178
L44771 39159
L44790 39140
L44809 39103
L44809 39009
L44790 38971
L44771 38953
L44734 38934
L44659 38934
L44621 38953
L44603 38971
L44584 39009
" />
<path d="M49607 40612
L49607 40837
" />
<path d="M49607 40724
L49213 40724
L49269 40762
L49307 40799
L49326 40837
" />
<path d="M49607 40443
L49213 40443
L49494 40312
L49213 40181
L49607 40181
" />
<path d="M50678 40565
L50490 40696
" />
<path d="M50678 40790
L50284 40790
L50284 40640
L50303 40603
L50321 40584
L50359 40565
L50415 40565
L50453 40584
L50471 40603
L50490 40640
L50490 40790
" />
<path d="M50284 40434
L50284 40171
L50678 40340
" />
<path d="M60607 33828
L60607 34053
" />
<path d="M60607 33940
L60213 33940
L60269 33978
L60307 34015
L60326 34053
" />
<path d="M60569 33659
L60588 33640
L60607 33659
L60588 33678
L60569 33659
L60607 33659
" />
<path d="M60251 33490
L60232 33471
L60213 33434
L60213 33340
L60232 33303
L60251 33284
L60288 33265
L60326 33265
L60382 33284
L60607 33509
L60607 33265
" />
<path d="M60607 33096
L60213 33096
" />
<path d="M60457 33059
L60607 32946
" />
<path d="M60344 32946
L60494 33096
" />
<path d="M61678 33565
L61490 33696
" />
<path d="M61678 33790
L61284 33790
L61284 33640
L61303 33603
L61321 33584
L61359 33565
L61415 33565
L61453 33584
L61471 33603
L61490 33640
L61490 33790
" />
<path d="M61453 33340
L61434 33378
L61415 33396
L61378 33415
L61359 33415
L61321 33396
L61303 33378
L61284 33340
L61284 33265
L61303 33228
L61321 33209
L61359 33190
L61378 33190
L61415 33209
L61434 33228
L61453 33265
L61453 33340
L61471 33378
L61490 33396
L61528 33415
L61603 33415
L61640 33396
L61659 33378
L61678 33340
L61678 33265
L61659 33228
L61640 33209
L61603 33190
L61528 33190
L61490 33209
L61471 33228
L61453 33265
" />
<path d="M44246 35713
L44059 35713
L44040 35901
L44059 35882
L44096 35863
L44190 35863
L44228 35882
L44246 35901
L44265 35938
L44265 36032
L44246 36069
L44228 36088
L44190 36107
L44096 36107
L44059 36088
L44040 36069
" />
<path d="M44603 35713
L44528 35713
L44490 35732
L44471 35751
L44434 35807
L44415 35882
L44415 36032
L44434 36069
L44453 36088
L44490 36107
L44565 36107
L44603 36088
L44621 36069
L44640 36032
L44640 35938
L44621 35901
L44603 35882
L44565 35863
L44490 35863
L44453 35882
L44434 35901
L44415 35938
" />
<path d="M44809 36107
L44809 35713
" />
<path d="M44846 35957
L44959 36107
" />
<path d="M44959 35844
L44809 35994
" />
<path d="M44434 37178
L44303 36990
" />
<path d="M44209 37178
L44209 36784
L44359 36784
L44396 36803
L44415 36821
L44434 36859
L44434 36915
L44415 36953
L44396 36971
L44359 36990
L44209 36990
" />
<path d="M44621 37178
L44696 37178
L44734 37159
L44753 37140
L44790 37084
L44809 37009
L44809 36859
L44790 36821
L44771 36803
L44734 36784
L44659 36784
L44621 36803
L44603 36821
L44584 36859
L44584 36953
L44603 36990
L44621 37009
L44659 37028
L44734 37028
L44771 37009
L44790 36990
L44809 36953
" />
<path d="M53748 42612
L53748 42837
" />
<path d="M53748 42724
L53355 42724
L53411 42762
L53449 42799
L53467 42837
" />
<path d="M53748 42443
L53355 42443
L53636 42312
L53355 42181
L53748 42181
" />
<path d="M52678 42753
L52490 42884
" />
<path d="M52678 42978
L52284 42978
L52284 42828
L52303 42790
L52321 42771
L52359 42753
L52415 42753
L52453 42771
L52471 42790
L52490 42828
L52490 42978
" />
<path d="M52678 42378
L52678 42603
" />
<path d="M52678 42490
L52284 42490
L52340 42528
L52378 42565
L52396 42603
" />
<path d="M52284 42134
L52284 42096
L52303 42059
L52321 42040
L52359 42021
L52434 42003
L52528 42003
L52603 42021
L52640 42040
L52659 42059
L52678 42096
L52678 42134
L52659 42171
L52640 42190
L52603 42209
L52528 42228
L52434 42228
L52359 42209
L52321 42190
L52303 42171
L52284 42134
" />
<path d="M62251 33959
L62232 33940
L62213 33903
L62213 33809
L62232 33771
L62251 33753
L62288 33734
L62326 33734
L62382 33753
L62607 33978
L62607 33734
" />
<path d="M62251 33584
L62232 33565
L62213 33528
L62213 33434
L62232 33396
L62251 33378
L62288 33359
L62326 33359
L62382 33378
L62607 33603
L62607 33359
" />
<path d="M62607 33190
L62213 33190
" />
<path d="M62457 33153
L62607 33040
" />
<path d="M62344 33040
L62494 33190
" />
<path d="M63678 33753
L63490 33884
" />
<path d="M63678 33978
L63284 33978
L63284 33828
L63303 33790
L63321 33771
L63359 33753
L63415 33753
L63453 33771
L63471 33790
L63490 33828
L63490 33978
" />
<path d="M63678 33378
L63678 33603
" />
<path d="M63678 33490
L63284 33490
L63340 33528
L63378 33565
L63396 33603
" />
<path d="M63678 33003
L63678 33228
" />
<path d="M63678 33115
L63284 33115
L63340 33153
L63378 33190
L63396 33228
" />
<path d="M56765 43248
L56540 43248
" />
<path d="M56653 43248
L56653 42855
L56615 42911
L56578 42949
L56540 42967
" />
<path d="M57009 42855
L57046 42855
L57084 42874
L57103 42892
L57121 42930
L57140 43005
L57140 43098
L57121 43173
L57103 43211
L57084 43230
L57046 43248
L57009 43248
L56971 43230
L56953 43211
L56934 43173
L56915 43098
L56915 43005
L56934 42930
L56953 42892
L56971 42874
L57009 42855
" />
<path d="M57309 43248
L57309 42855
" />
<path d="M57346 43098
L57459 43248
" />
<path d="M57459 42986
L57309 43136
" />
<path d="M56746 42178
L56615 41990
" />
<path d="M56521 42178
L56521 41784
L56671 41784
L56709 41803
L56728 41821
L56746 41859
L56746 41915
L56728 41953
L56709 41971
L56671 41990
L56521 41990
" />
<path d="M57121 42178
L56896 42178
" />
<path d="M57009 42178
L57009 41784
L56971 41840
L56934 41878
L56896 41896
" />
<path d="M57271 41821
L57290 41803
L57328 41784
L57421 41784
L57459 41803
L57478 41821
L57496 41859
L57496 41896
L57478 41953
L57253 42178
L57496 42178
" />
<path d="M60748 36734
L60748 36959
" />
<path d="M60748 36846
L60355 36846
L60411 36884
L60449 36921
L60467 36959
" />
<path d="M60355 36490
L60355 36453
L60374 36415
L60392 36396
L60430 36378
L60505 36359
L60598 36359
L60673 36378
L60711 36396
L60730 36415
L60748 36453
L60748 36490
L60730 36528
L60711 36546
L60673 36565
L60598 36584
L60505 36584
L60430 36565
L60392 36546
L60374 36528
L60355 36490
" />
<path d="M60748 36190
L60355 36190
" />
<path d="M60598 36153
L60748 36040
" />
<path d="M60486 36040
L60636 36190
" />
<path d="M59678 36753
L59490 36884
" />
<path d="M59678 36978
L59284 36978
L59284 36828
L59303 36790
L59321 36771
L59359 36753
L59415 36753
L59453 36771
L59471 36790
L59490 36828
L59490 36978
" />
<path d="M59678 36378
L59678 36603
" />
<path d="M59678 36490
L59284 36490
L59340 36528
L59378 36565
L59396 36603
" />
<path d="M59284 36246
L59284 36003
L59434 36134
L59434 36078
L59453 36040
L59471 36021
L59509 36003
L59603 36003
L59640 36021
L59659 36040
L59678 36078
L59678 36190
L59659 36228
L59640 36246
" />
<path d="M56765 45107
L56540 45107
" />
<path d="M56653 45107
L56653 44713
L56615 44769
L56578 44807
L56540 44826
" />
<path d="M57009 44713
L57046 44713
L57084 44732
L57103 44751
L57121 44788
L57140 44863
L57140 44957
L57121 45032
L57103 45069
L57084 45088
L57046 45107
L57009 45107
L56971 45088
L56953 45069
L56934 45032
L56915 44957
L56915 44863
L56934 44788
L56953 44751
L56971 44732
L57009 44713
" />
<path d="M57309 45107
L57309 44713
" />
<path d="M57346 44957
L57459 45107
" />
<path d="M57459 44844
L57309 44994
" />
<path d="M56746 46178
L56615 45990
" />
<path d="M56521 46178
L56521 45784
L56671 45784
L56709 45803
L56728 45821
L56746 45859
L56746 45915
L56728 45953
L56709 45971
L56671 45990
L56521 45990
" />
<path d="M57121 46178
L56896 46178
" />
<path d="M57009 46178
L57009 45784
L56971 45840
L56934 45878
L56896 45896
" />
<path d="M57459 45915
L57459 46178
" />
<path d="M57365 45765
L57271 46046
L57515 46046
" />
<path d="M50171 51248
L49946 51248
" />
<path d="M50059 51248
L50059 50855
L50021 50911
L49984 50949
L49946 50967
" />
<path d="M50340 51211
L50359 51230
L50340 51248
L50321 51230
L50340 51211
L50340 51248
" />
<path d="M50715 50855
L50528 50855
L50509 51042
L50528 51023
L50565 51005
L50659 51005
L50696 51023
L50715 51042
L50734 51080
L50734 51173
L50715 51211
L50696 51230
L50659 51248
L50565 51248
L50528 51230
L50509 51211
" />
<path d="M50903 51248
L50903 50855
" />
<path d="M50940 51098
L51053 51248
" />
<path d="M51053 50986
L50903 51136
" />
<path d="M50246 50178
L50115 49990
" />
<path d="M50021 50178
L50021 49784
L50171 49784
L50209 49803
L50228 49821
L50246 49859
L50246 49915
L50228 49953
L50209 49971
L50171 49990
L50021 49990
" />
<path d="M50621 50178
L50396 50178
" />
<path d="M50509 50178
L50509 49784
L50471 49840
L50434 49878
L50396 49896
" />
<path d="M50978 49784
L50790 49784
L50771 49971
L50790 49953
L50828 49934
L50921 49934
L50959 49953
L50978 49971
L50996 50009
L50996 50103
L50978 50140
L50959 50159
L50921 50178
L50828 50178
L50790 50159
L50771 50140
" />
<path d="M56953 45248
L56728 45248
" />
<path d="M56840 45248
L56840 44855
L56803 44911
L56765 44949
L56728 44967
" />
<path d="M57121 45248
L57121 44855
" />
<path d="M57159 45098
L57271 45248
" />
<path d="M57271 44986
L57121 45136
" />
<path d="M56746 44178
L56615 43990
" />
<path d="M56521 44178
L56521 43784
L56671 43784
L56709 43803
L56728 43821
L56746 43859
L56746 43915
L56728 43953
L56709 43971
L56671 43990
L56521 43990
" />
<path d="M57121 44178
L56896 44178
" />
<path d="M57009 44178
L57009 43784
L56971 43840
L56934 43878
L56896 43896
" />
<path d="M57459 43784
L57384 43784
L57346 43803
L57328 43821
L57290 43878
L57271 43953
L57271 44103
L57290 44140
L57309 44159
L57346 44178
L57421 44178
L57459 44159
L57478 44140
L57496 44103
L57496 44009
L57478 43971
L57459 43953
L57421 43934
L57346 43934
L57309 43953
L57290 43971
L57271 44009
" />
<path d="M45251 50487
L45232 50468
L45213 50431
L45213 50337
L45232 50299
L45251 50281
L45288 50262
L45326 50262
L45382 50281
L45607 50506
L45607 50262
" />
<path d="M45251 50112
L45232 50093
L45213 50056
L45213 49962
L45232 49925
L45251 49906
L45288 49887
L45326 49887
L45382 49906
L45607 50131
L45607 49887
" />
<path d="M45213 49643
L45213 49606
L45232 49568
L45251 49550
L45288 49531
L45363 49512
L45457 49512
L45532 49531
L45569 49550
L45588 49568
L45607 49606
L45607 49643
L45588 49681
L45569 49700
L45532 49718
L45457 49737
L45363 49737
L45288 49718
L45251 49700
L45232 49681
L45213 49643
" />
<path d="M46678 50253
L46490 50384
" />
<path d="M46678 50478
L46284 50478
L46284 50328
L46303 50290
L46321 50271
L46359 50253
L46415 50253
L46453 50271
L46471 50290
L46490 50328
L46490 50478
" />
<path d="M46678 49878
L46678 50103
" />
<path d="M46678 49990
L46284 49990
L46340 50028
L46378 50065
L46396 50103
" />
<path d="M46284 49746
L46284 49484
L46678 49653
" />
<path d="M50181 53355
L50425 53355
L50293 53505
L50350 53505
L50387 53523
L50406 53542
L50425 53580
L50425 53673
L50406 53711
L50387 53730
L50350 53748
L50237 53748
L50200 53730
L50181 53711
" />
<path d="M50612 53748
L50687 53748
L50724 53730
L50743 53711
L50781 53655
L50799 53580
L50799 53430
L50781 53392
L50762 53374
L50724 53355
L50649 53355
L50612 53374
L50593 53392
L50574 53430
L50574 53523
L50593 53561
L50612 53580
L50649 53598
L50724 53598
L50762 53580
L50781 53561
L50799 53523
" />
<path d="M50246 52678
L50115 52490
" />
<path d="M50021 52678
L50021 52284
L50171 52284
L50209 52303
L50228 52321
L50246 52359
L50246 52415
L50228 52453
L50209 52471
L50171 52490
L50021 52490
" />
<path d="M50621 52678
L50396 52678
" />
<path d="M50509 52678
L50509 52284
L50471 52340
L50434 52378
L50396 52396
" />
<path d="M50846 52453
L50809 52434
L50790 52415
L50771 52378
L50771 52359
L50790 52321
L50809 52303
L50846 52284
L50921 52284
L50959 52303
L50978 52321
L50996 52359
L50996 52378
L50978 52415
L50959 52434
L50921 52453
L50846 52453
L50809 52471
L50790 52490
L50771 52528
L50771 52603
L50790 52640
L50809 52659
L50846 52678
L50921 52678
L50959 52659
L50978 52640
L50996 52603
L50996 52528
L50978 52490
L50959 52471
L50921 52453
" />
<path d="M44484 41741
L44259 41741
" />
<path d="M44372 41741
L44372 41347
L44334 41403
L44297 41441
L44259 41459
" />
<path d="M44653 41741
L44653 41347
" />
<path d="M44690 41591
L44803 41741
" />
<path d="M44803 41478
L44653 41628
" />
<path d="M46284 44218
L46096 44349
" />
<path d="M46284 44443
L45890 44443
L45890 44293
L45909 44256
L45928 44237
L45965 44218
L46021 44218
L46059 44237
L46078 44256
L46096 44293
L46096 44443
" />
<path d="M45890 44106
L46284 43974
L45890 43843
" />
<path d="M46284 43506
L46284 43731
" />
<path d="M46284 43618
L45890 43618
L45946 43656
L45984 43693
L46003 43731
" />
<path d="M59000 32253
L59000 32440
L59188 32459
L59169 32440
L59150 32403
L59150 32309
L59169 32271
L59188 32253
L59225 32234
L59319 32234
L59357 32253
L59375 32271
L59394 32309
L59394 32403
L59375 32440
L59357 32459
" />
<path d="M59000 31990
L59000 31953
L59019 31915
L59038 31896
L59075 31878
L59150 31859
L59244 31859
L59319 31878
L59357 31896
L59375 31915
L59394 31953
L59394 31990
L59375 32028
L59357 32046
L59319 32065
L59244 32084
L59150 32084
L59075 32065
L59038 32046
L59019 32028
L59000 31990
" />
<path d="M59394 31690
L59000 31690
" />
<path d="M59244 31653
L59394 31540
" />
<path d="M59132 31540
L59282 31690
" />
<path d="M56146 31250
L55959 31381
" />
<path d="M56146 31475
L55752 31475
L55752 31325
L55771 31287
L55790 31268
L55827 31250
L55884 31250
L55921 31268
L55940 31287
L55959 31325
L55959 31475
" />
<path d="M55752 31137
L56146 31006
L55752 30875
" />
<path d="M55790 30762
L55771 30743
L55752 30706
L55752 30612
L55771 30575
L55790 30556
L55827 30537
L55865 30537
L55921 30556
L56146 30781
L56146 30537
" />
<path d="M36530 34934
L36343 34934
L36324 35121
L36343 35102
L36380 35083
L36474 35083
L36512 35102
L36530 35121
L36549 35158
L36549 35252
L36530 35290
L36512 35308
L36474 35327
L36380 35327
L36343 35308
L36324 35290
" />
<path d="M36718 35327
L36718 34934
" />
<path d="M36755 35177
L36868 35327
" />
<path d="M36868 35065
L36718 35215
" />
<path d="M39595 39202
L39407 39334
" />
<path d="M39595 39427
L39201 39427
L39201 39277
L39220 39240
L39239 39221
L39276 39202
L39332 39202
L39370 39221
L39389 39240
L39407 39277
L39407 39427
" />
<path d="M39201 39090
L39595 38959
L39201 38827
" />
<path d="M39201 38734
L39201 38490
L39351 38621
L39351 38565
L39370 38527
L39389 38509
L39426 38490
L39520 38490
L39557 38509
L39576 38527
L39595 38565
L39595 38677
L39576 38715
L39557 38734
" />
<path d="M55334 41095
L55146 41095
L55146 40701
" />
<path d="M55465 41095
L55465 40701
L55596 40982
L55728 40701
L55728 41095
" />
<path d="M55878 40701
L56121 40701
L55990 40851
L56046 40851
L56084 40870
L56103 40889
L56121 40926
L56121 41020
L56103 41057
L56084 41076
L56046 41095
L55934 41095
L55896 41076
L55878 41057
" />
<path d="M56271 40739
L56290 40720
L56328 40701
L56421 40701
L56459 40720
L56478 40739
L56496 40776
L56496 40814
L56478 40870
L56253 41095
L56496 41095
" />
<path d="M56834 40832
L56834 41095
" />
<path d="M56740 40682
L56646 40964
L56890 40964
" />
<path d="M55700 36784
L55700 37103
L55718 37140
L55737 37159
L55775 37178
L55850 37178
L55887 37159
L55906 37140
L55925 37103
L55925 36784
" />
<path d="M56318 37178
L56093 37178
" />
<path d="M56206 37178
L56206 36784
L56168 36840
L56131 36878
L56093 36896
" />
<path d="M47760 48009
L47367 48009
L47648 47877
L47367 47746
L47760 47746
" />
<path d="M47367 47484
L47367 47409
L47385 47371
L47423 47334
L47498 47315
L47629 47315
L47704 47334
L47742 47371
L47760 47409
L47760 47484
L47742 47521
L47704 47559
L47629 47577
L47498 47577
L47423 47559
L47385 47521
L47367 47484
" />
<path d="M47723 46921
L47742 46940
L47760 46996
L47760 47034
L47742 47090
L47704 47128
L47667 47146
L47592 47165
L47535 47165
L47460 47146
L47423 47128
L47385 47090
L47367 47034
L47367 46996
L47385 46940
L47404 46921
" />
<path d="M47367 46790
L47367 46546
L47517 46678
L47517 46621
L47535 46584
L47554 46565
L47592 46546
L47685 46546
L47723 46565
L47742 46584
L47760 46621
L47760 46734
L47742 46771
L47723 46790
" />
<path d="M47367 46303
L47367 46265
L47385 46228
L47404 46209
L47442 46190
L47517 46171
L47610 46171
L47685 46190
L47723 46209
L47742 46228
L47760 46265
L47760 46303
L47742 46340
L47723 46359
L47685 46378
L47610 46396
L47517 46396
L47442 46378
L47404 46359
L47385 46340
L47367 46303
" />
<path d="M47498 45834
L47760 45834
" />
<path d="M47348 45928
L47629 46021
L47629 45778
" />
<path d="M47760 45422
L47760 45646
" />
<path d="M47760 45534
L47367 45534
L47423 45571
L47460 45609
L47479 45646
" />
<path d="M47760 45253
L47367 45253
L47648 45122
L47367 44990
L47760 44990
" />
<path d="M49284 46799
L49603 46799
L49640 46781
L49659 46762
L49678 46724
L49678 46649
L49659 46612
L49640 46593
L49603 46574
L49284 46574
" />
<path d="M49321 46406
L49303 46387
L49284 46350
L49284 46256
L49303 46218
L49321 46200
L49359 46181
L49396 46181
L49453 46200
L49678 46425
L49678 46181
" />
<path d="M45570 49231
L45589 49174
L45607 49156
L45645 49137
L45701 49137
L45739 49156
L45757 49174
L45776 49212
L45776 49362
L45382 49362
L45382 49231
L45401 49193
L45420 49174
L45457 49156
L45495 49156
L45532 49174
L45551 49193
L45570 49231
L45570 49362
" />
<path d="M45739 48743
L45757 48762
L45776 48818
L45776 48856
L45757 48912
L45720 48949
L45682 48968
L45607 48987
L45551 48987
L45476 48968
L45439 48949
L45401 48912
L45382 48856
L45382 48818
L45401 48762
L45420 48743
" />
<path d="M45382 48612
L45382 48368
L45532 48500
L45532 48443
L45551 48406
L45570 48387
L45607 48368
L45701 48368
L45739 48387
L45757 48406
L45776 48443
L45776 48556
L45757 48593
L45739 48612
" />
<path d="M45382 48237
L45382 47993
L45532 48125
L45532 48068
L45551 48031
L45570 48012
L45607 47993
L45701 47993
L45739 48012
L45757 48031
L45776 48068
L45776 48181
L45757 48218
L45739 48237
" />
<path d="M45382 47862
L45382 47600
L45776 47768
" />
<path d="M44735 48533
L44716 48571
L44679 48608
L44622 48664
L44604 48702
L44604 48739
" />
<path d="M44697 48721
L44679 48758
L44641 48796
L44566 48814
L44435 48814
L44360 48796
L44322 48758
L44304 48721
L44304 48646
L44322 48608
L44360 48571
L44435 48552
L44566 48552
L44641 48571
L44679 48608
L44697 48646
L44697 48721
" />
<path d="M44697 48177
L44697 48402
" />
<path d="M44697 48289
L44304 48289
L44360 48327
L44397 48364
L44416 48402
" />
</g> 
</svg>
